<svg xmlns="http://www.w3.org/2000/svg" viewBox="0 0 800 450" font-family="Segoe UI, Arial, sans-serif">
  <rect width="800" height="450" fill="#1e1e2e"/>
  <text x="400" y="50" text-anchor="middle" fill="#cba6f7" font-size="28" font-weight="bold">Admin Dashboard - SupplyChain AI Platform</text>
  <rect x="30" y="80" width="170" height="80" rx="8" fill="#313244"/><text x="115" y="115" text-anchor="middle" fill="#a6e3a1" font-size="24" font-weight="bold">12</text><text x="115" y="140" text-anchor="middle" fill="#a6adc8" font-size="12">Active Users</text>
  <rect x="215" y="80" width="170" height="80" rx="8" fill="#313244"/><text x="300" y="115" text-anchor="middle" fill="#89b4fa" font-size="24" font-weight="bold">5</text><text x="300" y="140" text-anchor="middle" fill="#a6adc8" font-size="12">AI Models</text>
  <rect x="400" y="80" width="170" height="80" rx="8" fill="#313244"/><text x="485" y="115" text-anchor="middle" fill="#fab387" font-size="24" font-weight="bold">98%</text><text x="485" y="140" text-anchor="middle" fill="#a6adc8" font-size="12">Uptime</text>
  <rect x="585" y="80" width="185" height="80" rx="8" fill="#313244"/><text x="677" y="115" text-anchor="middle" fill="#f38ba8" font-size="24" font-weight="bold">1,247</text><text x="677" y="140" text-anchor="middle" fill="#a6adc8" font-size="12">RAG Queries</text>
  <text x="40" y="200" fill="#cdd6f4" font-size="16" font-weight="bold">System Health</text>
  <rect x="30" y="215" width="740" height="30" rx="4" fill="#313244"/><rect x="30" y="215" width="700" height="30" rx="4" fill="#a6e3a1" opacity="0.8"/><text x="760" y="235" text-anchor="end" fill="#cdd6f4" font-size="12">95%</text>
  <text x="40" y="275" fill="#cdd6f4" font-size="16" font-weight="bold">AI Service Status</text>
  <rect x="30" y="290" width="230" height="40" rx="6" fill="#a6e3a1" opacity="0.2"/><text x="50" y="315" fill="#a6e3a1" font-size="13">● Ollama LLM</text>
  <rect x="275" y="290" width="230" height="40" rx="6" fill="#a6e3a1" opacity="0.2"/><text x="295" y="315" fill="#a6e3a1" font-size="13">● PGVector</text>
  <rect x="520" y="290" width="250" height="40" rx="6" fill="#a6e3a1" opacity="0.2"/><text x="540" y="315" fill="#a6e3a1" font-size="13">● MCP Services</text>
  <text x="40" y="370" fill="#cdd6f4" font-size="16" font-weight="bold">Recent Activities</text>
  <text x="40" y="395" fill="#a6adc8" font-size="12">• User admin added new AI model 'llama3.1'</text>
  <text x="40" y="415" fill="#a6adc8" font-size="12">• RAG index rebuilt for supplier documents</text>
  <text x="40" y="435" fill="#a6adc8" font-size="12">• System auto-scaled 2 new instances</text>
</svg>