<svg xmlns="http://www.w3.org/2000/svg" viewBox="0 0 1200 750" font-family="'Inter', 'Segoe UI', sans-serif">
  <rect width="1200" height="750" fill="#f5f5f5"/>
  <rect width="1200" height="56" fill="white"/>
  <line x1="0" y1="56" x2="1200" y2="56" stroke="#e0e0e0" stroke-width="1"/>
  <rect x="8" y="10" width="36" height="36" rx="8" fill="#1976D2"/>
  <text x="14" y="34" font-size="14" fill="white" font-weight="bold">📦</text>
  <text x="52" y="34" font-size="15" fill="#1a1a2e" font-weight="500">SupplyChain Pro</text>
  <rect x="0" y="56" width="260" height="694" fill="white"/>
  <line x1="259" y1="56" x2="259" y2="750" stroke="#e0e0e0" stroke-width="1"/>
  <rect x="8" y="62" width="244" height="40" rx="8" fill="transparent"/>
  <text x="36" y="88" font-size="13" fill="#555">📊 Dashboard</text>
  <rect x="8" y="108" width="244" height="40" rx="8" fill="transparent"/>
  <text x="36" y="134" font-size="13" fill="#555">🏭 Suppliers</text>
  <rect x="8" y="152" width="244" height="40" rx="8" fill="transparent"/>
  <text x="36" y="178" font-size="13" fill="#555">📦 Products</text>
  <rect x="8" y="196" width="244" height="40" rx="8" fill="#E3F2FD"/>
  <text x="36" y="222" font-size="13" fill="#1976D2" font-weight="500">📊 Inventory</text>
  <!-- Main -->
  <text x="285" y="92" font-size="22" fill="#1a1a2e" font-weight="600">Inventory</text>
  <text x="285" y="114" font-size="13" fill="#666">Track and manage stock levels</text>
  <!-- Inventory Summary Stats -->
  <rect x="285" y="135" width="220" height="70" rx="10" fill="white" filter="drop-shadow(0 1px 3px rgba(0,0,0,0.08))"/>
  <text x="301" y="160" font-size="12" fill="#666">Total SKUs</text>
  <text x="301" y="185" font-size="20" fill="#1a1a2e" font-weight="700">12,590</text>
  <rect x="520" y="135" width="220" height="70" rx="10" fill="white" filter="drop-shadow(0 1px 3px rgba(0,0,0,0.08))"/>
  <text x="536" y="160" font-size="12" fill="#666">Low Stock Items</text>
  <text x="536" y="185" font-size="20" fill="#D32F2F" font-weight="700">34</text>
  <rect x="755" y="135" width="220" height="70" rx="10" fill="white" filter="drop-shadow(0 1px 3px rgba(0,0,0,0.08))"/>
  <text x="771" y="160" font-size="12" fill="#666">Out of Stock</text>
  <text x="771" y="185" font-size="20" fill="#F57C00" font-weight="700">8</text>
  <!-- Inventory Table -->
  <rect x="285" y="225" width="900" height="480" rx="12" fill="white" filter="drop-shadow(0 1px 3px rgba(0,0,0,0.08))"/>
  <rect x="301" y="250" width="868" height="36" fill="#F5F5F5"/>
  <text x="312" y="273" font-size="11" fill="#666" font-weight="600">SKU</text>
  <text x="440" y="273" font-size="11" fill="#666" font-weight="600">Product Name</text>
  <text x="610" y="273" font-size="11" fill="#666" font-weight="600">Category</text>
  <text x="740" y="273" font-size="11" fill="#666" font-weight="600">Warehouse</text>
  <text x="870" y="273" font-size="11" fill="#666" font-weight="600">Qty</text>
  <text x="980" y="273" font-size="11" fill="#666" font-weight="600">Status</text>
  <!-- Row 1 -->
  <rect x="301" y="286" width="868" height="44" fill="transparent"/>
  <text x="312" y="312" font-size="12" fill="#1976D2" font-weight="500">SKU-TITAN-082</text>
  <text x="440" y="312" font-size="12" fill="#333">Titanium Bolts M8</text>
  <text x="610" y="312" font-size="12" fill="#333">Hardware</text>
  <text x="740" y="312" font-size="12" fill="#333">Warehouse A</text>
  <text x="870" y="312" font-size="12" fill="#333" text-anchor="end">23</text>
  <rect x="930" y="298" width="56" height="22" rx="6" fill="#FEF9E7"/>
  <text x="944" y="314" font-size="10" fill="#F39C12" font-weight="600">Low</text>
  <line x1="301" y1="330" x2="1169" y2="330" stroke="#F5F5F5" stroke-width="1"/>
  <!-- Row 2 -->
  <rect x="301" y="330" width="868" height="44" fill="transparent"/>
  <text x="312" y="356" font-size="12" fill="#1976D2" font-weight="500">SKU-ELEC-045</text>
  <text x="440" y="356" font-size="12" fill="#333">Circuit Board X200</text>
  <text x="610" y="356" font-size="12" fill="#333">Electronics</text>
  <text x="740" y="356" font-size="12" fill="#333">Warehouse B</text>
  <text x="870" y="356" font-size="12" fill="#333" text-anchor="end">1,250</text>
  <rect x="930" y="342" width="56" height="22" rx="6" fill="#E8F5E9"/>
  <text x="944" y="358" font-size="10" fill="#388E3C" font-weight="600">Good</text>
  <!-- Row 3 -->
  <rect x="301" y="374" width="868" height="44" fill="transparent"/>
  <text x="312" y="400" font-size="12" fill="#1976D2" font-weight="500">SKU-RAW-112</text>
  <text x="440" y="400" font-size="12" fill="#333">Aluminum Sheets</text>
  <text x="610" y="400" font-size="12" fill="#333">Raw Materials</text>
  <text x="740" y="400" font-size="12" fill="#333">Warehouse A</text>
  <text x="870" y="400" font-size="12" fill="#333" text-anchor="end">0</text>
  <rect x="924" y="386" width="68" height="22" rx="6" fill="#FCE4EC"/>
  <text x="940" y="402" font-size="10" fill="#D32F2F" font-weight="600">Out of Stock</text>
</svg>
